<?xml version="1.0" encoding="UTF-8"?>
<svg width="23px" height="23px" viewBox="0 0 23 23" version="1.1" xmlns="http://www.w3.org/2000/svg" xmlns:xlink="http://www.w3.org/1999/xlink">
    <!-- Generator: Sketch 45.1 (43504) - http://www.bohemiancoding.com/sketch -->
    <title>Sõk ikon pos</title>
    <desc>Created with Sketch.</desc>
    <defs></defs>
    <g id="Admin-+-registrere-bugs" stroke="none" stroke-width="1" fill="none" fillRule="evenodd">
        <g id="Landing" transform="translate(-693.000000, -419.000000)" fill="#C2C2C2">
            <g id="Group" transform="translate(620.000000, 409.000000)">
                <path d="M77.7152767,24.5989903 C76.3435659,23.2272796 75.5884439,21.4037293 75.5884439,19.4640064 C75.5884439,17.5242835 76.3435659,15.7004762 77.7152767,14.3287654 C79.0869875,12.9570546 80.9107948,12.2019326 82.8505177,12.2019326 C84.7899836,12.2019326 86.6137909,12.9570546 87.9855016,14.3287654 C89.3572124,15.7004762 90.1123344,17.5242835 90.1123344,19.4640064 C90.1123344,21.4037293 89.3572124,23.2272796 87.9855016,24.5989903 C86.6137909,25.9707011 84.7899836,26.7258231 82.8505177,26.7258231 C80.9107948,26.7258231 79.0869875,25.9707011 77.7152767,24.5989903 M95.3524392,30.9992792 L89.8121362,25.4589761 C91.252214,23.7922075 92.0399774,21.6892775 92.0399774,19.4640064 C92.0399774,17.0094743 91.0843805,14.701443 89.3484738,12.9657933 C87.612824,11.2298865 85.3050498,10.2742896 82.8505177,10.2742896 C80.3957286,10.2742896 78.0879543,11.2298865 76.3523046,12.9657933 C74.6163978,14.701443 73.6608009,17.0094743 73.6608009,19.4640064 C73.6608009,21.9185385 74.6163978,24.2263127 76.3523046,25.9619624 C78.0879543,27.6978692 80.3957286,28.6534661 82.8505177,28.6534661 C84.8853376,28.6534661 86.818121,27.9949833 88.408555,26.7813392 L93.9894671,32.3622513 C94.2739872,32.6467714 94.7353364,32.6467714 95.0198565,32.3622513 L95.3524392,32.0296686 C95.6369593,31.7451485 95.6369593,31.2837993 95.3524392,30.9992792" id="Sõk-ikon-pos"></path>
            </g>
        </g>
    </g>
</svg>
